<svg fill="@color" version="1.1" viewBox="0 0 16 16" xmlns="http://www.w3.org/2000/svg">
	<path
		d="m12 0.0097656c-0.94946 0-1.8983 0.33444-2.6504 1l-2.0527 2.0449 1.1699 1.1699c0.12091 0.036903 0.24103 0.078825 0.35938 0.125l1.7598-1.7598c0.094329-0.094333 0.19684-0.17628 0.30273-0.24805 0.33718-0.22852 0.72343-0.34375 1.1113-0.34375s0.77418 0.11523 1.1113 0.34375c0.10589 0.071764 0.2084 0.15371 0.30273 0.24805 0.038803 0.039458 0.07594 0.080506 0.11133 0.12305 0.02079 0.024401 0.041105 0.049132 0.060547 0.074219l0.001953 0.0019531c0.02583 0.033709 0.050578 0.068227 0.074218 0.10352 0.02357 0.034774 0.045257 0.069672 0.066407 0.10547 0.0013 0.00195 0.002606 0.0038994 0.003906 0.0058593v0.0019532h0.001953v0.0019531c0.36004 0.61759 0.36004 1.3746 0 1.9922-6.65e-4 0.0013-0.001253 0.0026062-0.001953 0.0039062-0.0012 0.0020301-0.002706 0.0038294-0.003906 0.0058594-0.02114 0.035797-0.042827 0.070694-0.066407 0.10547-0.02424 0.035973-0.049644 0.071147-0.076171 0.10547-0.01943 0.025087-0.039757 0.049818-0.060547 0.074219-0.03539 0.042538-0.072527 0.083586-0.11133 0.12305l-1.877 1.877 1.4141 1.4141 1.877-1.877c1.5537-1.5537 1.5537-4.1025 0-5.6562-0.77686-0.77686-1.8023-1.166-2.8281-1.166zm-9 1.5762-1.4141 1.4141 11.414 11.414 1.4141-1.4141-11.414-11.414zm0.054688 5.7109-1.8828 1.875c-1.5537 1.5537-1.5537 4.1026 0 5.6562s4.1026 1.5537 5.6562 0l1.8789-1.8789-1.1738-1.1738c-0.12045-0.036556-0.2395-0.077309-0.35742-0.12305l-1.7617 1.7617c-0.094333 0.094332-0.19684 0.17626-0.30273 0.24805-0.6744 0.45718-1.5483 0.45718-2.2227 0-0.10589-0.071825-0.2084-0.1537-0.30273-0.24805-0.094332-0.094329-0.17626-0.19684-0.24805-0.30273-0.45718-0.6744-0.45718-1.5483 0-2.2227 0.071788-0.1059 0.15371-0.2084 0.24805-0.30273l1.8789-1.8789-1.4102-1.4102z"
		fill="currentColor" />
</svg>