<svg fill="currentColor" version="1.1" viewBox="0 0 16 16" xmlns="http://www.w3.org/2000/svg">
	<path
		d="m13 0c-0.79484 1.2031e-4 -1.5591 0.31681-2.1211 0.87891l-4.5859 4.5859-0.37891-0.37891c-0.57739-0.57727-1.3492-0.86523-2.1211-0.86523-0.77185 0-1.5437 0.28797-2.1211 0.86523-1.1517 1.152-1.1539 3.0786-0.0078125 4.2344-0.28481 0.13899-0.55124 0.32473-0.78516 0.55859-1.1545 1.1548-1.1545 3.0874 0 4.2422l1 1c1.1548 1.1545 3.0874 1.1545 4.2422 0 0.23382-0.23387 0.41948-0.5004 0.55859-0.78516 1.1558 1.1459 3.0825 1.1439 4.2344-0.007813 1.1545-1.1548 1.1545-3.0874 0-4.2422l-0.37891-0.37891 4.5859-4.5859c1.1545-1.1548 1.1545-3.0874 0-4.2422-0.56197-0.56209-1.3263-0.87879-2.1211-0.87891zm0 2a1 1 0 0 1 0.70703 0.29297 1 1 0 0 1 0 1.4141l-6 6 1.793 1.793a1 1 0 0 1 0 1.4141 1 1 0 0 1-1.4141 0l-1.793-1.793-1.4102 1.4102a1 1 0 0 1-0.17578 1.1758 1 1 0 0 1-1.4141 0l-1-1a1 1 0 0 1 0-1.4141 1 1 0 0 1 1.1758-0.17578l1.4102-1.4102-1.793-1.793a1 1 0 0 1 0-1.4141 1 1 0 0 1 1.4141 0l1.793 1.793 6-6a1 1 0 0 1 0.70703-0.29297z"
		fill="currentColor" stop-color="#000000" stroke-linecap="round"
		style="font-variation-settings:'wght' 600;paint-order:stroke fill markers" />
</svg>